<?xml version="1.0" encoding="UTF-8" standalone="no"?>
<!DOCTYPE svg PUBLIC "-//W3C//DTD SVG 1.1//EN" "http://www.w3.org/Graphics/SVG/1.1/DTD/svg11.dtd">
<svg width="100%" height="100%" viewBox="0 0 269 386" version="1.1" xmlns="http://www.w3.org/2000/svg" xmlns:xlink="http://www.w3.org/1999/xlink" xml:space="preserve" xmlns:serif="http://www.serif.com/" style="fill-rule:evenodd;clip-rule:evenodd;stroke-linecap:round;stroke-linejoin:round;stroke-miterlimit:1.5;">
    <g transform="matrix(1,0,0,1,-947.946,-895.566)">
        <path d="M1115.49,1274C1110.8,1230.61 1101.41,1143.83 1105,1083C1108.47,1024.13 1112.82,923.639 1137,909C1172.83,887.311 1196.94,928.437 1209,949" style="fill:none;stroke:black;stroke-width:14.58px;"/>
        <path d="M1069,1165C1068.88,1154.84 1068.64,1134.52 1080,1130C1095.5,1123.83 1139.83,1126.61 1162,1128" style="fill:none;stroke:black;stroke-width:14.58px;"/>
        <path d="M1080,1054C1080,1054 1077.07,1026.59 1070,1015C1065.4,1007.46 1054.55,986.962 1023,990C991.45,993.038 992.334,1010.41 991,1015C989.139,1021.4 1002.06,1061.83 1013,1076C1025.77,1092.54 1068.34,1134.24 1066,1154C1063.66,1173.76 1051.9,1183.09 1026,1188C998.175,1193.27 971.698,1175.72 969,1171C966.302,1166.28 948.509,1147.1 958,1137" style="fill:none;stroke:black;stroke-width:14.58px;"/>
    </g>
</svg>
